<?xml version="1.0" encoding="UTF-8" standalone="no" ?>
<!DOCTYPE svg PUBLIC "-//W3C//DTD SVG 1.1//EN" "http://www.w3.org/Graphics/SVG/1.1/DTD/svg11.dtd">
<svg xmlns="http://www.w3.org/2000/svg" xmlns:xlink="http://www.w3.org/1999/xlink" version="1.1" width="1280" height="1024" viewBox="0 0 1280 1024" xml:space="preserve">
<desc>Created with Fabric.js 5.3.0</desc>
<defs>
</defs>
<g transform="matrix(1 0 0 1 640 512)" id="background-logo"  >
<rect style="stroke: none; stroke-width: 0; stroke-dasharray: none; stroke-linecap: butt; stroke-dashoffset: 0; stroke-linejoin: miter; stroke-miterlimit: 4; fill: rgb(255,255,255); fill-rule: nonzero; opacity: 1;"  paint-order="stroke"  x="-640" y="-512" rx="0" ry="0" width="1280" height="1024" />
</g>
<g transform="matrix(1.9211538461538462 0 0 1.9211538461538462 642.8234770320012 507.0243605779747)" id="text-logo"  >
<g style=""  paint-order="stroke"   >
		<g transform="matrix(1 0 0 1 0 0)" id="text-logo-path-0"  >
<linearGradient id="SVGID_436890" gradientUnits="userSpaceOnUse" gradientTransform="matrix(1 0 0 1 5.1299999999999955 -56.16)"  x1="-5.0185058593749545" y1="-13.28799749999996" x2="-5.0185058593749545" y2="75.71200250000004">
<stop offset="0%" style="stop-color:rgb(113,23,234);stop-opacity: 1"/>
<stop offset="100%" style="stop-color:rgb(234,96,96);stop-opacity: 1"/>
</linearGradient>
<path style="stroke: rgb(0,0,0); stroke-width: 0; stroke-dasharray: none; stroke-linecap: butt; stroke-dashoffset: 0; stroke-linejoin: miter; stroke-miterlimit: 4; fill: url(#SVGID_436890); fill-rule: nonzero; opacity: 1;"  paint-order="stroke"  transform=" translate(-235.015, 27.404999999999998)" d="M 5.13 -7.1 L 5.13 -7.1 L 5.13 -47.95 Q 6.02 -48.1 7.91 -48.39 Q 9.8 -48.68 11.53 -48.68 L 11.53 -48.68 Q 13.35 -48.68 14.74 -48.39 Q 16.12 -48.1 17.07 -47.39 Q 18.01 -46.67 18.5 -45.42 Q 18.98 -44.17 18.98 -42.12 L 18.98 -42.12 L 18.98 -10.92 L 37.07 -10.92 Q 37.61 -10.03 38.07 -8.56 Q 38.54 -7.1 38.54 -5.52 L 38.54 -5.52 Q 38.54 -2.35 37.2 -1.06 Q 35.87 0.23 33.64 0.23 L 33.64 0.23 L 12.5 0.23 Q 9.1 0.23 7.12 -1.74 Q 5.13 -3.7 5.13 -7.1 Z M 44.28 -49.07 L 44.28 -49.07 Q 44.28 -52.08 46.31 -54.12 Q 48.33 -56.16 51.65 -56.16 L 51.65 -56.16 Q 54.97 -56.16 56.97 -54.12 Q 58.98 -52.08 58.98 -49.07 L 58.98 -49.07 Q 58.98 -46.06 56.97 -43.99 Q 54.97 -41.93 51.65 -41.93 L 51.65 -41.93 Q 48.33 -41.93 46.31 -43.99 Q 44.28 -46.06 44.28 -49.07 Z M 44.94 -5.67 L 44.94 -5.67 L 44.94 -37.84 Q 45.83 -38 47.5 -38.27 Q 49.18 -38.54 50.92 -38.54 L 50.92 -38.54 Q 52.65 -38.54 54.04 -38.3 Q 55.43 -38.07 56.38 -37.36 Q 57.32 -36.65 57.84 -35.43 Q 58.36 -34.22 58.36 -32.25 L 58.36 -32.25 L 58.36 -0.08 Q 57.48 0.08 55.78 0.35 Q 54.08 0.62 52.35 0.62 L 52.35 0.62 Q 50.61 0.62 49.22 0.39 Q 47.83 0.15 46.89 -0.56 Q 45.94 -1.27 45.44 -2.49 Q 44.94 -3.7 44.94 -5.67 Z M 65.92 -27.08 L 65.92 -27.08 Q 65.92 -30.01 67.18 -32.38 Q 68.43 -34.76 70.73 -36.34 Q 73.02 -37.92 76.22 -38.79 Q 79.42 -39.65 83.28 -39.65 L 83.28 -39.65 Q 86.21 -39.65 88.78 -39.23 Q 91.34 -38.81 93.25 -37.94 Q 95.16 -37.07 96.26 -35.68 Q 97.36 -34.29 97.36 -32.4 L 97.36 -32.4 Q 97.36 -30.59 96.69 -29.28 Q 96.01 -27.97 95.01 -27.08 L 95.01 -27.08 Q 94.39 -27.46 93.12 -27.91 Q 91.85 -28.35 90.34 -28.72 Q 88.84 -29.08 87.29 -29.32 Q 85.75 -29.55 84.48 -29.55 L 84.48 -29.55 Q 81.85 -29.55 80.45 -28.95 Q 79.04 -28.35 79.04 -27.08 L 79.04 -27.08 Q 79.04 -26.19 79.83 -25.65 Q 80.62 -25.11 82.82 -24.65 L 82.82 -24.65 L 85.29 -24.11 Q 92.89 -22.37 96.07 -19.33 Q 99.25 -16.28 99.25 -11.46 L 99.25 -11.46 Q 99.25 -5.44 94.76 -2.04 Q 90.26 1.35 81.47 1.35 L 81.47 1.35 Q 78.15 1.35 75.32 0.87 Q 72.48 0.39 70.46 -0.6 Q 68.43 -1.58 67.29 -3.09 Q 66.15 -4.59 66.15 -6.63 L 66.15 -6.63 Q 66.15 -8.52 66.95 -9.84 Q 67.74 -11.15 68.85 -12 L 68.85 -12 Q 71.13 -10.72 74.1 -9.74 Q 77.07 -8.76 80.93 -8.76 L 80.93 -8.76 Q 83.36 -8.76 84.67 -9.47 Q 85.98 -10.18 85.98 -11.38 L 85.98 -11.38 Q 85.98 -12.5 85.04 -13.12 Q 84.09 -13.73 81.89 -14.16 L 81.89 -14.16 L 79.5 -14.62 Q 72.64 -15.97 69.28 -18.84 Q 65.92 -21.72 65.92 -27.08 Z M 105.89 -12.23 L 105.89 -12.23 L 105.89 -46.06 Q 106.77 -46.29 108.37 -46.56 Q 109.98 -46.83 111.79 -46.83 L 111.79 -46.83 Q 115.26 -46.83 117.21 -45.61 Q 119.16 -44.4 119.16 -40.46 L 119.16 -40.46 L 119.16 -35.41 L 129.49 -35.41 Q 129.96 -34.52 130.4 -33.21 Q 130.84 -31.9 130.84 -30.32 L 130.84 -30.32 Q 130.84 -27.54 129.61 -26.33 Q 128.38 -25.11 126.33 -25.11 L 126.33 -25.11 L 119.16 -25.11 L 119.16 -13.19 Q 119.16 -11.15 120.45 -10.28 Q 121.74 -9.41 124.13 -9.41 L 124.13 -9.41 Q 125.33 -9.41 126.58 -9.6 Q 127.83 -9.8 128.8 -10.11 L 128.8 -10.11 Q 129.49 -9.22 130.01 -8.16 Q 130.54 -7.1 130.54 -5.59 L 130.54 -5.59 Q 130.54 -2.58 128.28 -0.69 Q 126.02 1.2 120.31 1.2 L 120.31 1.2 Q 113.37 1.2 109.63 -1.97 Q 105.89 -5.13 105.89 -12.23 Z M 154.1 -6.48 L 154.1 -6.48 L 154.1 -43.36 Q 154.1 -45.02 155.01 -45.92 Q 155.92 -46.83 157.5 -47.41 L 157.5 -47.41 Q 160.2 -48.37 164.23 -48.8 Q 168.26 -49.22 172.5 -49.22 L 172.5 -49.22 Q 182.61 -49.22 188.07 -45.83 Q 193.53 -42.43 193.53 -35.3 L 193.53 -35.3 Q 193.53 -31.75 191.48 -29.18 Q 189.44 -26.62 185.93 -25.42 L 185.93 -25.42 Q 189.86 -24.3 192.52 -21.39 Q 195.19 -18.48 195.19 -14.08 L 195.19 -14.08 Q 195.19 -6.25 189.38 -2.49 Q 183.57 1.27 172.66 1.27 L 172.66 1.27 Q 171.31 1.27 169.5 1.2 Q 167.68 1.12 165.75 0.87 Q 163.82 0.62 161.93 0.27 Q 160.04 -0.08 158.46 -0.69 L 158.46 -0.69 Q 154.1 -2.35 154.1 -6.48 Z M 167.53 -19.52 L 167.53 -9.88 Q 168.65 -9.57 170.38 -9.45 Q 172.12 -9.33 173.7 -9.33 L 173.7 -9.33 Q 176.86 -9.33 178.95 -10.63 Q 181.03 -11.92 181.03 -14.7 L 181.03 -14.7 Q 181.03 -17.32 179.29 -18.42 Q 177.56 -19.52 174.01 -19.52 L 174.01 -19.52 L 167.53 -19.52 Z M 167.53 -38.46 L 167.53 -29.16 L 173.31 -29.16 Q 176.71 -29.16 178.25 -30.42 Q 179.79 -31.67 179.79 -34.14 L 179.79 -34.14 Q 179.79 -36.26 178.02 -37.53 Q 176.25 -38.81 172.66 -38.81 L 172.66 -38.81 Q 171.46 -38.81 169.94 -38.71 Q 168.42 -38.61 167.53 -38.46 L 167.53 -38.46 Z M 201.55 -15.24 L 201.55 -15.24 L 201.55 -37.84 Q 202.32 -38.07 204.04 -38.3 Q 205.75 -38.54 207.57 -38.54 L 207.57 -38.54 Q 209.3 -38.54 210.69 -38.3 Q 212.08 -38.07 213.03 -37.36 Q 213.97 -36.65 214.49 -35.43 Q 215.01 -34.22 215.01 -32.25 L 215.01 -32.25 L 215.01 -15.24 Q 215.01 -12 216.59 -10.63 Q 218.18 -9.26 221.15 -9.26 L 221.15 -9.26 Q 222.96 -9.26 224.12 -9.57 Q 225.27 -9.88 225.89 -10.18 L 225.89 -10.18 L 225.89 -37.84 Q 226.66 -38.07 228.38 -38.3 Q 230.1 -38.54 231.91 -38.54 L 231.91 -38.54 Q 233.64 -38.54 235.03 -38.3 Q 236.42 -38.07 237.37 -37.36 Q 238.31 -36.65 238.81 -35.43 Q 239.31 -34.22 239.31 -32.25 L 239.31 -32.25 L 239.31 -8.22 Q 239.31 -4.28 236 -2.28 L 236 -2.28 Q 233.22 -0.54 229.4 0.37 Q 225.58 1.27 221.07 1.27 L 221.07 1.27 Q 216.79 1.27 213.2 0.33 Q 209.61 -0.62 207.01 -2.6 Q 204.4 -4.59 202.98 -7.71 Q 201.55 -10.84 201.55 -15.24 Z M 247.18 -49.07 L 247.18 -49.07 Q 247.18 -52.08 249.21 -54.12 Q 251.23 -56.16 254.55 -56.16 L 254.55 -56.16 Q 257.87 -56.16 259.87 -54.12 Q 261.88 -52.08 261.88 -49.07 L 261.88 -49.07 Q 261.88 -46.06 259.87 -43.99 Q 257.87 -41.93 254.55 -41.93 L 254.55 -41.93 Q 251.23 -41.93 249.21 -43.99 Q 247.18 -46.06 247.18 -49.07 Z M 247.84 -5.67 L 247.84 -5.67 L 247.84 -37.84 Q 248.73 -38 250.4 -38.27 Q 252.08 -38.54 253.82 -38.54 L 253.82 -38.54 Q 255.55 -38.54 256.94 -38.3 Q 258.33 -38.07 259.28 -37.36 Q 260.22 -36.65 260.74 -35.43 Q 261.26 -34.22 261.26 -32.25 L 261.26 -32.25 L 261.26 -0.08 Q 260.38 0.08 258.68 0.35 Q 256.98 0.62 255.25 0.62 L 255.25 0.62 Q 253.51 0.62 252.12 0.39 Q 250.73 0.15 249.79 -0.56 Q 248.84 -1.27 248.34 -2.49 Q 247.84 -3.7 247.84 -5.67 Z M 270.02 -5.67 L 270.02 -5.67 L 270.02 -51.5 Q 270.91 -51.65 272.58 -51.94 Q 274.26 -52.23 276 -52.23 L 276 -52.23 Q 277.73 -52.23 279.12 -51.98 Q 280.51 -51.73 281.46 -51.03 Q 282.4 -50.34 282.92 -49.1 Q 283.44 -47.87 283.44 -45.9 L 283.44 -45.9 L 283.44 -0.08 Q 282.56 0.08 280.86 0.35 Q 279.16 0.62 277.43 0.62 L 277.43 0.62 Q 275.69 0.62 274.3 0.39 Q 272.91 0.15 271.97 -0.56 Q 271.02 -1.27 270.52 -2.49 Q 270.02 -3.7 270.02 -5.67 Z M 290.19 -19.21 L 290.19 -19.21 Q 290.19 -24.42 291.78 -28.24 Q 293.36 -32.06 296.17 -34.6 Q 298.99 -37.15 302.73 -38.36 Q 306.47 -39.58 310.83 -39.58 L 310.83 -39.58 Q 312.41 -39.58 313.92 -39.31 Q 315.42 -39.04 316.35 -38.61 L 316.35 -38.61 L 316.35 -51.42 Q 317.12 -51.65 318.87 -51.94 Q 320.63 -52.23 322.44 -52.23 L 322.44 -52.23 Q 324.18 -52.23 325.57 -51.98 Q 326.96 -51.73 327.9 -51.03 Q 328.85 -50.34 329.33 -49.1 Q 329.81 -47.87 329.81 -45.9 L 329.81 -45.9 L 329.81 -8.45 Q 329.81 -4.74 326.3 -2.55 L 326.3 -2.55 Q 324.02 -1.04 320.4 0.12 Q 316.77 1.27 312.03 1.27 L 312.03 1.27 Q 306.9 1.27 302.83 -0.15 Q 298.76 -1.58 295.94 -4.26 Q 293.13 -6.94 291.66 -10.7 Q 290.19 -14.47 290.19 -19.21 Z M 303.81 -19.21 L 303.81 -19.21 Q 303.81 -14.31 305.93 -11.82 Q 308.05 -9.33 312.1 -9.33 L 312.1 -9.33 Q 313.53 -9.33 314.67 -9.76 Q 315.81 -10.18 316.42 -10.76 L 316.42 -10.76 L 316.42 -28.12 Q 314.84 -29.08 312.64 -29.08 L 312.64 -29.08 Q 308.36 -29.08 306.09 -26.64 Q 303.81 -24.19 303.81 -19.21 Z M 336.48 -19.75 L 336.48 -19.75 Q 336.48 -24.96 338.2 -28.72 Q 339.92 -32.48 342.67 -34.89 Q 345.43 -37.3 348.98 -38.44 Q 352.53 -39.58 356.23 -39.58 L 356.23 -39.58 Q 360.44 -39.58 363.87 -38.32 Q 367.3 -37.07 369.79 -34.85 Q 372.28 -32.63 373.67 -29.55 Q 375.06 -26.46 375.06 -22.84 L 375.06 -22.84 Q 375.06 -20.14 373.55 -18.73 Q 372.05 -17.32 369.35 -16.9 L 369.35 -16.9 L 349.87 -13.96 Q 350.76 -11.34 353.42 -10.05 Q 356.08 -8.76 359.59 -8.76 L 359.59 -8.76 Q 362.83 -8.76 365.7 -9.59 Q 368.58 -10.42 370.39 -11.53 L 370.39 -11.53 Q 371.66 -10.76 372.53 -9.33 Q 373.4 -7.91 373.4 -6.33 L 373.4 -6.33 Q 373.4 -2.78 370.08 -1.04 L 370.08 -1.04 Q 367.54 0.31 364.39 0.79 Q 361.25 1.27 358.47 1.27 L 358.47 1.27 Q 353.8 1.27 349.81 -0.04 Q 345.82 -1.35 342.87 -3.95 Q 339.92 -6.56 338.2 -10.51 Q 336.48 -14.47 336.48 -19.75 Z M 348.9 -22.84 L 348.9 -22.84 L 362.4 -25.03 Q 362.17 -26.62 360.67 -28.2 Q 359.16 -29.78 356.23 -29.78 L 356.23 -29.78 Q 354.34 -29.78 352.97 -29.14 Q 351.6 -28.51 350.74 -27.52 Q 349.87 -26.54 349.42 -25.32 Q 348.98 -24.11 348.9 -22.84 Z M 381.5 -5.67 L 381.5 -5.67 L 381.5 -29.39 Q 381.5 -31.21 382.17 -32.52 Q 382.85 -33.83 384.12 -34.83 L 384.12 -34.83 Q 385.4 -35.87 387.25 -36.7 Q 389.1 -37.53 391.24 -38.17 Q 393.38 -38.81 395.66 -39.15 Q 397.93 -39.5 400.25 -39.5 L 400.25 -39.5 Q 404.03 -39.5 406.24 -38.03 Q 408.46 -36.57 408.46 -33.25 L 408.46 -33.25 Q 408.46 -32.13 408.13 -31.07 Q 407.81 -30.01 407.34 -29.16 L 407.34 -29.16 Q 405.69 -29.16 403.95 -29.01 Q 402.21 -28.85 400.55 -28.53 Q 398.9 -28.2 397.43 -27.85 Q 395.96 -27.5 394.96 -27 L 394.96 -27 L 394.96 -0.08 Q 394.19 0.15 392.47 0.39 Q 390.76 0.62 388.94 0.62 L 388.94 0.62 Q 387.21 0.62 385.82 0.39 Q 384.43 0.15 383.49 -0.56 Q 382.54 -1.27 382.02 -2.49 Q 381.5 -3.7 381.5 -5.67 Z M 429.18 -7.44 L 429.18 -7.44 Q 429.18 -9.64 430.45 -11.15 Q 431.72 -12.65 433.3 -13.5 L 433.3 -13.5 Q 435.5 -11.84 438.03 -10.63 Q 440.56 -9.41 444.41 -9.41 L 444.41 -9.41 Q 448.12 -9.41 449.72 -11.07 Q 451.32 -12.73 451.32 -15.08 L 451.32 -15.08 Q 451.32 -17.36 449.93 -18.86 Q 448.54 -20.37 445.15 -20.37 L 445.15 -20.37 Q 443.02 -20.37 441.6 -19.9 Q 440.17 -19.44 438.36 -18.55 L 438.36 -18.55 Q 434.5 -18.71 432.24 -20.66 Q 429.99 -22.6 429.99 -26.62 L 429.99 -26.62 Q 429.99 -26.85 429.99 -27.21 Q 429.99 -27.58 430.06 -28.66 L 430.06 -28.66 L 430.99 -40.7 Q 431.22 -44.09 433.13 -46.06 Q 435.04 -48.02 438.43 -48.02 L 438.43 -48.02 L 461.19 -48.02 Q 461.66 -47.14 462.12 -45.73 Q 462.58 -44.32 462.58 -42.74 L 462.58 -42.74 Q 462.58 -39.73 461.25 -38.48 Q 459.92 -37.22 457.88 -37.22 L 457.88 -37.22 L 442.68 -37.22 L 442.14 -29.78 Q 443.64 -30.17 445.19 -30.49 Q 446.73 -30.82 449.08 -30.82 L 449.08 -30.82 Q 453.17 -30.82 456.18 -29.59 Q 459.19 -28.35 461.14 -26.23 Q 463.08 -24.11 463.99 -21.25 Q 464.9 -18.4 464.9 -15.16 L 464.9 -15.16 Q 464.9 -11.92 463.8 -8.93 Q 462.7 -5.94 460.33 -3.68 Q 457.95 -1.43 454.27 -0.08 Q 450.59 1.27 445.38 1.27 L 445.38 1.27 Q 441.75 1.27 438.78 0.71 Q 435.81 0.15 433.69 -0.95 Q 431.57 -2.04 430.37 -3.66 Q 429.18 -5.28 429.18 -7.44 Z" stroke-linecap="round" />
</g>
</g>
</g>
</svg>